<?xml version="1.0" encoding="utf-8"?>
<!-- Generator: Adobe Illustrator 17.0.0, SVG Export Plug-In . SVG Version: 6.00 Build 0)  -->
<!DOCTYPE svg PUBLIC "-//W3C//DTD SVG 1.1//EN" "http://www.w3.org/Graphics/SVG/1.1/DTD/svg11.dtd">
<svg version="1.1" id="Layer_1" xmlns="http://www.w3.org/2000/svg" xmlns:xlink="http://www.w3.org/1999/xlink" x="0px" y="0px"
	 width="595.28px" height="841.89px" viewBox="0 0 595.28 841.89" enable-background="new 0 0 595.28 841.89" xml:space="preserve">
<g>
	<path fill="#F7941E" stroke="#F7941E" stroke-miterlimit="10" d="M218.781,366.035c-13.028,0-23.191,3.571-30.491,10.714
		c-7.3,7.143-10.95,16.98-10.95,29.514c0,12.443,3.627,22.248,10.882,29.413c7.254,7.165,17.44,10.747,30.558,10.747
		c13.117,0,23.303-3.582,30.558-10.747c7.254-7.165,10.882-16.97,10.882-29.413c0-12.442-3.605-22.259-10.815-29.446
		C242.196,369.63,231.988,366.035,218.781,366.035z M233.908,417.684c-0.787,2.719-1.966,5.044-3.538,6.975
		c-1.393,1.752-3.089,2.998-5.087,3.74c-2,0.74-4.1,1.111-6.3,1.111c-2.561,0-4.841-0.404-6.839-1.213
		c-2-0.809-3.718-2.089-5.155-3.841c-1.482-1.842-2.606-4.278-3.369-7.312c-0.764-3.031-1.146-6.613-1.146-10.747
		c0-4.626,0.438-8.467,1.314-11.522c0.876-3.055,2.055-5.458,3.538-7.21c1.662-1.887,3.403-3.144,5.222-3.773
		c1.819-0.629,3.896-0.943,6.233-0.943c2.335,0,4.515,0.382,6.536,1.146c2.021,0.765,3.75,2.066,5.188,3.908
		c1.437,1.797,2.561,4.201,3.369,7.21c0.809,3.01,1.213,6.738,1.213,11.186C235.087,411.205,234.694,414.967,233.908,417.684z"/>
	<path fill="#F7941E" stroke="#F7941E" stroke-miterlimit="10" d="M448.893,396.223c-6.648,0.854-12.22,2.291-16.711,4.313
		c-4.538,2.021-8.042,4.784-10.512,8.288c-2.471,3.504-3.706,8.019-3.706,13.544c0,6.918,2.426,12.601,7.277,17.048
		s10.871,6.671,18.059,6.671c3.055,0,5.862-0.259,8.423-0.775s5.03-1.313,7.412-2.392c1.707-0.809,3.526-1.909,5.458-3.302
		c1.931-1.392,3.548-2.583,4.852-3.571v8.019H493.5v-51.48c0-9.073-3.065-15.734-9.198-19.979
		c-6.131-4.246-16.094-6.368-29.884-6.368c-5.795,0-11.579,0.461-17.351,1.382c-5.773,0.921-9.939,1.718-12.5,2.392v18.261h2.224
		c1.977-0.764,5.232-1.854,9.771-3.268c4.537-1.416,8.804-2.123,12.803-2.123c6.647,0,11.68,0.798,15.094,2.393
		c3.413,1.595,5.121,4.48,5.121,8.658v0.404C462.437,394.74,455.54,395.37,448.893,396.223z M469.444,424.271
		c-1.887,1.613-4.076,2.911-6.57,3.896c-2.492,0.986-4.952,1.478-7.378,1.478c-3.056,0-5.301-0.213-6.738-0.638
		c-1.438-0.426-2.673-1.086-3.706-1.981c-1.078-0.896-1.752-1.836-2.021-2.821s-0.404-2.261-0.404-3.829
		c0-2.373,0.641-4.287,1.92-5.742c1.281-1.455,3.134-2.563,5.56-3.325c1.977-0.627,4.874-1.176,8.692-1.646
		c3.817-0.47,7.367-0.839,10.646-1.108V424.271z"/>
	<path fill="#F7941E" stroke="#F7941E" stroke-miterlimit="10" d="M532.333,331.25h-362.54c0,0-22.285,0.335-26.467,12.481
		l-24.25,70.433l-24.25-70.433H67.641l36.589,100.333h28.975l36.589-100.333h362.54v108.935H401.186v-8.602v-49.257
		c0-9.208-2.12-16.262-6.359-21.158c-4.238-4.896-10.44-7.345-18.604-7.345c-4.397,0-8.882,1.169-13.458,3.504
		c-4.575,2.336-9.285,5.549-14.129,9.636c-2.154-4.313-5.138-7.581-8.951-9.804c-3.813-2.225-8.21-3.336-13.189-3.336
		c-4.622,0-8.839,0.921-12.652,2.763c-3.813,1.843-7.807,4.403-11.979,7.682v-8.355h-24.325v75.671h24.325v-53.637
		c1.796-1.078,3.817-2.1,6.064-3.066c2.246-0.965,4.559-1.448,6.94-1.448c2.965,0,5.267,0.37,6.907,1.112
		c1.639,0.74,2.863,1.92,3.672,3.537s1.303,3.718,1.482,6.301c0.179,2.583,0.27,5.717,0.27,9.399v37.802h24.325v-53.637
		c2.785-1.617,5.144-2.773,7.075-3.471c1.931-0.695,3.908-1.044,5.93-1.044c3.009,0,5.346,0.37,7.008,1.112
		c1.661,0.74,2.874,1.92,3.639,3.537c0.809,1.617,1.291,3.706,1.449,6.267c0.156,2.561,0.235,5.705,0.235,9.434v37.802h-0.027v8.602
		c0,0-0.119,14.667,24.375,14.667h131.125c0,0,13.333-0.036,13.333-14.667V343.731C545.667,343.731,545.631,331.25,532.333,331.25z"
		/>
</g>
</svg>
